<svg width="12" height="13" viewBox="0 0 12 13" fill="none" xmlns="http://www.w3.org/2000/svg">
<path fill-rule="evenodd" clip-rule="evenodd" d="M7.06641 2.82425C6.59366 3.29721 5.82697 3.29721 5.35422 2.82425L3.32053 0.789625C2.8843 0.353191 2.17686 0.353032 1.74043 0.789271C1.30399 1.22551 1.30384 1.93295 1.74008 2.36938L5.35424 5.98509C5.82698 6.45803 6.59366 6.45803 7.0664 5.98509L10.6806 2.36938C11.1168 1.93295 11.1167 1.2255 10.6802 0.789263C10.2438 0.353028 9.53636 0.353187 9.10013 0.78962L7.06641 2.82425Z" fill="white"/>
<path fill-rule="evenodd" clip-rule="evenodd" d="M7.06641 8.78329C6.59366 9.25624 5.82697 9.25624 5.35423 8.78328L3.32052 6.74866C2.88429 6.31223 2.17686 6.31207 1.74043 6.74829C1.304 7.18453 1.30384 7.89197 1.74008 8.3284L5.35424 11.9441C5.82698 12.4171 6.59366 12.4171 7.0664 11.9441L10.6806 8.3284C11.1168 7.89197 11.1167 7.18452 10.6802 6.74829C10.2438 6.31206 9.53637 6.31222 9.10014 6.74865L7.06641 8.78329Z" fill="white"/>
</svg>
