<svg width="19" height="19" viewBox="0 0 19 19" fill="none" xmlns="http://www.w3.org/2000/svg">
<path d="M17.5243 18.1332L11.2243 11.8332C10.7243 12.2332 10.1493 12.5498 9.49932 12.7832C8.84932 13.0165 8.15765 13.1332 7.42432 13.1332C5.60765 13.1332 4.07015 12.504 2.81182 11.2457C1.55348 9.98735 0.924316 8.44985 0.924316 6.63318C0.924316 4.81651 1.55348 3.27901 2.81182 2.02068C4.07015 0.762345 5.60765 0.133179 7.42432 0.133179C9.24098 0.133179 10.7785 0.762345 12.0368 2.02068C13.2951 3.27901 13.9243 4.81651 13.9243 6.63318C13.9243 7.36651 13.8077 8.05818 13.5743 8.70818C13.341 9.35818 13.0243 9.93318 12.6243 10.4332L18.9243 16.7332L17.5243 18.1332ZM7.42432 11.1332C8.67432 11.1332 9.73682 10.6957 10.6118 9.82068C11.4868 8.94568 11.9243 7.88318 11.9243 6.63318C11.9243 5.38318 11.4868 4.32068 10.6118 3.44568C9.73682 2.57068 8.67432 2.13318 7.42432 2.13318C6.17432 2.13318 5.11182 2.57068 4.23682 3.44568C3.36182 4.32068 2.92432 5.38318 2.92432 6.63318C2.92432 7.88318 3.36182 8.94568 4.23682 9.82068C5.11182 10.6957 6.17432 11.1332 7.42432 11.1332Z" fill="white"/>
</svg>
