<svg width="139" height="61" viewBox="0 0 139 61" fill="none" xmlns="http://www.w3.org/2000/svg">
<path d="M11.7994 0.716904C12.1519 1.40328 12.1519 1.45893 11.8551 1.47748C11.5583 1.47748 11.5583 1.49603 11.8736 1.62588C12.189 1.75574 12.1519 1.81139 11.5583 2.1824C10.6493 2.73892 10.6864 2.86877 11.6139 2.38646C12.3003 2.034 12.356 2.034 12.3745 2.3308C12.3745 2.62761 12.4116 2.60906 12.5415 2.2937C12.6342 2.08965 12.7084 1.99689 12.727 2.1082C12.727 2.20095 12.9496 2.53486 13.2278 2.85022L13.7101 3.40674L13.302 2.68327C12.9681 2.1082 12.9496 1.92269 13.1351 1.81139C13.3206 1.68153 13.3206 1.64443 13.1165 1.64443C12.9867 1.64443 13.098 1.45893 13.3948 1.23632C14.2852 0.5685 14.3409 0.438646 13.5803 0.88386C13.0609 1.18067 12.8197 1.23632 12.727 1.06937C12.6157 0.920961 12.56 0.920961 12.5044 1.10647C12.4673 1.23632 12.2446 1.05081 12.0035 0.661253C11.447 -0.247726 11.3171 -0.210625 11.7994 0.716904Z" fill="white"/>
<path d="M109.171 2.16381C108.707 2.59048 108.559 2.86874 108.503 3.61076C108.41 4.40843 108.466 4.61249 108.893 5.11336C109.894 6.30059 111.453 6.30059 112.454 5.11336C112.881 4.61249 112.937 4.40843 112.844 3.61076C112.733 2.31222 111.972 1.6444 110.674 1.6444C109.932 1.6444 109.635 1.73715 109.171 2.16381Z" fill="white"/>
<path d="M27.1963 3.42527C21.3158 4.1673 16.3442 6.96843 12.9866 11.4206C12.3744 12.2182 11.8364 12.9046 11.7808 12.9603C11.6138 13.1087 10.1298 16.4107 10.1298 16.6518C10.1298 17.0785 9.77733 16.6704 7.90372 14.1104C6.88344 12.7191 5.86315 11.3649 5.6591 11.1052L5.26953 10.6414L5.52924 11.1052C5.67765 11.3649 6.60518 12.8675 7.58836 14.4814C8.59009 16.0768 9.44342 17.5052 9.49907 17.6721C9.64747 18.0617 9.23936 18.0617 7.1988 17.6721C6.34547 17.5237 5.60345 17.4124 5.56634 17.4681C5.52924 17.5052 6.34547 17.7463 7.3843 18.006C8.42313 18.2472 9.29501 18.544 9.33211 18.6367C9.36921 18.7481 7.97792 19.8425 6.23417 21.104C4.50896 22.3469 3.08057 23.4042 3.08057 23.4599C3.08057 23.5712 4.49041 22.7735 5.58489 22.0501C6.99474 21.1225 9.0353 19.9538 9.09095 20.028C9.14661 20.0651 9.09095 20.4733 9.01675 20.937C8.68284 22.588 8.8127 25.5005 9.29501 27.9677C9.55472 29.2477 9.85153 30.5091 9.94428 30.7503C10.1483 31.214 10.1483 31.214 7.90372 30.843C7.64401 30.8059 7.90372 30.9358 8.46023 31.1398C9.01675 31.3253 9.64747 31.4923 9.85153 31.5109C10.1854 31.5294 10.1483 31.5851 9.66602 31.9932L9.10951 32.4755L9.72167 32.1601C10.3153 31.8633 10.3524 31.8633 10.2596 32.1972C10.204 32.3827 10.1112 32.9949 10.0556 33.5514L9.94428 34.5717L10.204 33.5885C10.4451 32.661 10.6121 32.29 10.742 32.4569C10.7791 32.494 11.0944 33.032 11.4283 33.6442C11.7622 34.2563 12.4486 35.2766 12.9309 35.9073C13.4318 36.5381 13.7657 37.0946 13.6729 37.1502C13.5987 37.2059 11.7437 37.2615 9.55472 37.2801C5.06548 37.3172 3.06202 37.5769 6.97619 37.614C8.34893 37.6325 10.5565 37.6882 11.8735 37.7624C14.2666 37.8737 14.2666 37.8737 14.1738 37.4841C14.0625 37.0946 14.1182 37.076 15.4909 37.076C16.6967 37.076 16.9935 37.1317 17.2718 37.447C17.6057 37.818 17.5871 37.818 16.066 37.818H14.5263L14.9715 38.3004C16.6781 40.1369 21.1859 42.6783 23.9871 43.3832C30.1644 44.9229 36.3418 43.7171 41.369 39.9699C42.0924 39.4319 42.9829 38.6714 43.3168 38.3004L43.966 37.6325H42.9087C42.3336 37.6325 41.8513 37.5583 41.8513 37.4841C41.8513 37.4099 42.2037 37.076 42.6304 36.7421C43.2797 36.2412 43.5579 36.1485 44.3742 36.1485H45.3388L46.0437 35.0911C47.9915 32.1416 49.4385 28.079 49.6796 24.8326C49.7353 24.2019 49.7538 24.1834 50.7556 24.0535C51.3121 23.9793 52.4808 23.9051 53.3526 23.8866C54.8552 23.8495 55.0778 23.9051 58.083 24.9625C62.6094 26.5578 63.6482 27.17 64.316 28.6355C65.225 30.6019 64.2047 32.7537 61.8488 33.8482C60.7729 34.3491 60.5132 34.3862 58.6396 34.3862C56.0054 34.3676 54.8181 33.941 53.4083 32.494C52.8703 31.9561 52.388 31.5109 52.3138 31.5109C52.0541 31.5109 49.457 33.199 49.457 33.3659C49.457 33.4587 49.9022 33.9966 50.4402 34.5717L51.4048 35.6105L54.8367 35.3323C56.7288 35.1653 60.1422 34.8685 62.4424 34.6644C64.7427 34.4604 66.7276 34.2934 66.8575 34.2934C66.9873 34.2934 67.3212 33.8111 67.5995 33.2175C68.0447 32.2714 68.1004 31.9561 68.1004 30.0268C68.1004 28.0419 68.0632 27.8193 67.5809 26.8918C66.9502 25.7231 65.5589 24.3132 64.3902 23.7011C63.9265 23.4599 63.5555 23.2002 63.5555 23.1445C63.5555 23.0703 64.6128 22.959 65.9299 22.9034C67.2285 22.8292 68.6383 22.7364 69.0835 22.6622L69.8627 22.5695V28.2645V33.9595L71.5879 33.8297C72.5154 33.7555 73.3502 33.6627 73.4429 33.6071C73.5171 33.57 73.5728 31.0285 73.5728 27.9862V22.4582L74.927 22.3469C76.1884 22.2356 84.2208 21.8645 85.1854 21.8645H85.6306V27.0773V32.29L86.8921 32.1787C87.5785 32.1045 88.4132 31.9932 88.7471 31.9375L89.3408 31.8448V26.7805V21.7347L92.4387 21.6234C97.0764 21.4379 101.399 21.4564 101.417 21.679C101.436 21.7718 101.454 23.7011 101.473 25.9271C101.473 28.1717 101.547 30.0454 101.603 30.101C101.658 30.1567 102.196 30.1196 102.808 30.0268C103.402 29.9155 104.181 29.7856 104.515 29.73L105.109 29.6372V25.5747V21.4935H106.964H108.819V25.2037C108.819 28.5057 108.856 28.9138 109.116 28.9138C109.283 28.9138 110.117 28.7654 110.971 28.5984L112.529 28.2645V24.8512V21.4379L113.104 21.5677C113.419 21.6234 114.087 21.679 114.57 21.679H115.441L115.349 23.5898C115.293 24.6842 115.367 25.9271 115.497 26.5578C115.738 27.7636 115.497 27.708 117.89 27.0773L119.077 26.7619L119.114 24.3503C119.133 22.4582 119.226 21.7347 119.541 20.8999C121.007 16.9115 124.327 14.3887 128.482 14.129C131.395 13.9435 133.417 14.5185 136.144 16.3179L137.758 17.3939V15.0936V12.7748L136.144 11.9585C133.677 10.7342 132.397 10.4559 129.317 10.4559C126.275 10.4559 124.698 10.827 122.342 12.0513C119.727 13.424 117.185 16.2437 116.332 18.7852L115.979 19.824L114.941 19.8425C114.384 19.8611 113.623 19.8796 113.271 19.8796L112.622 19.9167L112.566 15.4089L112.529 10.9197H110.674H108.819V15.4646V20.0095L107.761 20.028C107.168 20.0466 106.352 20.0651 105.944 20.0837L105.202 20.1022L105.072 18.5625C104.812 15.3904 103.662 13.3313 101.324 11.8101C98.6903 10.1035 94.8132 9.75102 91.6967 10.9197C90.4909 11.3649 88.71 12.9046 88.135 13.962C87.9309 14.333 87.7269 14.6298 87.6712 14.6298C87.6156 14.6298 87.3002 14.1661 86.9663 13.6095C86.1315 12.2182 84.8144 11.198 83.2005 10.7157C82.1246 10.3817 81.5681 10.3446 79.7316 10.4003C77.8394 10.4559 77.4313 10.5301 76.5223 10.9754C75.5577 11.4391 74.389 12.5151 73.8139 13.4426C73.6284 13.7394 73.5913 13.5539 73.5913 12.3481L73.5728 10.9197H71.7177H69.8627V16.3921V21.8645H69.3618C69.065 21.8831 67.2285 21.9944 65.2621 22.1243L61.6818 22.3654L59.4743 21.6605C56.9515 20.8628 56.2651 20.5289 55.5231 19.8425C54.7625 19.1562 54.4657 18.4883 54.4657 17.5052C54.4657 15.1863 56.6175 13.9064 60.1422 14.129C61.923 14.2403 63.0175 14.6669 64.1491 15.7058L64.9468 16.4478L66.338 15.4275C67.0986 14.871 67.7664 14.3887 67.8035 14.333C67.9519 14.1846 65.7444 12.2368 64.7983 11.6988C62.7578 10.5487 59.9195 10.1406 57.4152 10.6229C54.5955 11.1794 52.5364 12.5893 51.4419 14.704C50.904 15.7614 50.8669 15.9655 50.8483 17.6907C50.8483 19.8796 51.2193 20.9185 52.4622 22.1614L53.2042 22.9405L52.6848 23.0332C52.388 23.0889 51.5903 23.2002 50.904 23.2558L49.6611 23.3671L49.5498 22.4767C48.5851 15.2791 42.1852 9.99218 34.9876 10.4188C28.6989 10.8084 23.7274 14.9452 22.1691 21.0854C21.8723 22.3098 21.7981 23.0518 21.8538 24.6471C21.8723 25.7416 21.8352 26.6135 21.761 26.5578C21.4456 26.3723 20.5181 24.0535 20.1285 22.5509C19.8503 21.4564 19.7575 20.4733 19.7575 18.9892C19.7575 16.4849 20.2028 14.6113 21.2972 12.4038C22.3175 10.3632 22.3361 10.3632 21.7981 11.0125C18.8671 14.5742 17.8097 19.8054 19.0341 24.5358C19.2381 25.3521 19.4051 26.261 19.4051 26.5764C19.4051 26.9103 19.4607 27.0587 19.5535 26.9289C19.6462 26.7805 19.7946 27.0031 19.9801 27.5039C20.1842 28.079 20.2028 28.3016 20.0543 28.3016C19.9245 28.3016 19.8317 28.2088 19.8317 28.0975C19.8503 27.3184 19.7761 27.2071 19.4978 27.5039C19.3494 27.6523 19.2196 27.8749 19.2196 27.9862C19.2196 28.0975 19.0341 28.2645 18.8115 28.3573C18.4033 28.5057 18.4033 28.5242 18.9042 28.5242C19.1825 28.5428 19.4051 28.45 19.4051 28.3016C19.4051 28.1346 19.4422 28.1346 19.5535 28.3016C19.6277 28.4129 19.943 28.5428 20.2399 28.5799C20.7407 28.6355 20.7964 28.7097 20.7964 29.2662C20.7964 29.8042 20.8706 29.9341 21.3158 30.0454C22.3917 30.3422 23.7088 32.4384 22.8184 32.4384C22.5958 32.4384 22.5401 32.3085 22.5958 31.9746C22.6514 31.7149 22.6143 31.4552 22.5401 31.3995C22.4474 31.3439 22.3732 31.4366 22.3732 31.6036C22.3732 31.7706 22.299 31.8448 22.1877 31.7891C22.0949 31.7335 22.0022 31.381 22.0022 31.0285C22.0022 30.4349 21.9651 30.3978 21.3529 30.3978C20.7964 30.3978 20.7036 30.4535 20.7036 30.8059C20.7222 31.1955 20.7407 31.214 20.9633 30.8987C21.0932 30.7317 21.2972 30.5833 21.4085 30.5833C21.7981 30.5833 21.7425 31.0656 21.2787 31.5294C20.8149 31.9932 20.7964 31.9932 20.6109 31.6407C20.3512 31.1027 19.9616 31.0285 19.8317 31.4923C19.7761 31.7149 19.6648 31.8819 19.572 31.8819C19.4793 31.8819 19.4051 31.9375 19.4051 32.0303C19.4051 32.2343 20.4996 32.6795 20.7778 32.5682C20.9262 32.5126 21.223 32.6053 21.4456 32.7537C21.7981 32.9949 21.928 33.0134 22.2248 32.8279C22.5216 32.6424 22.5772 32.6424 22.4474 32.8465C22.3546 32.9763 22.3175 33.2546 22.3361 33.4772C22.3917 33.8668 21.9651 33.9781 21.4827 33.6627C21.3529 33.5885 21.2601 33.6256 21.2601 33.7369C21.2601 33.8668 21.1488 33.8853 20.9448 33.774C20.7593 33.6813 20.4625 33.6256 20.2955 33.6442C20.0358 33.6998 19.9616 33.57 19.9616 33.0691C19.9616 32.6239 19.8688 32.4384 19.6833 32.4384C19.5164 32.4384 19.3494 32.3085 19.2938 32.1601C19.1083 31.6964 18.9042 31.8448 18.7744 32.5126C18.6816 32.9578 18.5518 33.1248 18.3291 33.1062C18.1065 33.0876 18.0138 33.2175 18.0138 33.5885C18.0323 33.9966 17.9767 34.0523 17.6984 33.9039C17.5129 33.8111 17.2903 33.57 17.179 33.3845C17.0306 33.0876 17.0492 33.0505 17.3274 33.1062C17.4944 33.1433 17.7726 33.1062 17.921 33.0134C18.1436 32.865 18.1436 32.7723 17.9581 32.5868C17.6057 32.2343 17.6984 32.0117 18.1622 32.1416C18.7187 32.2714 19.2196 31.6036 18.7744 31.2697C18.626 31.1398 18.4775 30.7874 18.4404 30.4906C18.3848 30.0083 18.292 29.9155 17.7355 29.8413C17.1234 29.7485 17.0863 29.7114 17.0863 29.0436C17.0863 28.6726 17.1419 28.3573 17.2347 28.3573C17.3089 28.3573 17.3645 28.1717 17.3645 27.9306C17.3645 27.4297 16.6225 26.9289 16.2144 27.17C16.0845 27.2628 15.7877 27.2999 15.5651 27.2813C15.2497 27.2257 15.1941 27.2999 15.2683 27.5967C15.3239 27.8193 15.4353 28.0048 15.528 28.0048C15.899 28.0604 15.9732 28.0975 16.2144 28.2274C16.3257 28.3202 16.437 28.4871 16.4184 28.5984C16.4184 28.7654 16.3813 28.7654 16.3071 28.5799C16.27 28.4686 16.0474 28.3573 15.8619 28.3573C15.6579 28.3573 15.3425 28.283 15.157 28.1903C14.6561 27.912 14.3408 28.2088 14.5634 28.7839C14.6932 29.1178 14.6932 29.3033 14.5634 29.3775C14.4706 29.4517 14.4335 29.6558 14.4892 29.8598C14.5634 30.0639 14.5263 30.2123 14.3964 30.2123C14.2666 30.2123 14.2109 29.9712 14.248 29.6001C14.2851 29.1178 14.248 29.0251 13.9512 29.0622C13.7472 29.0993 13.6729 29.0436 13.7472 28.9138C13.8214 28.8025 13.8214 28.3202 13.7472 27.8564C13.6544 27.2442 13.5802 27.0773 13.4503 27.2628C13.3205 27.4854 13.2834 27.4854 13.2834 27.2442C13.2834 26.8547 13.6358 26.5022 13.9327 26.6135C14.1924 26.7248 14.4521 26.2054 14.2851 25.9271C14.2295 25.8344 13.8956 25.7602 13.5431 25.7602H12.9124L13.0237 26.5393C13.0793 26.9845 13.1721 27.4483 13.2092 27.5967C13.2648 27.7822 13.1721 27.8193 12.8011 27.7265C12.3559 27.6152 12.3188 27.6338 12.4301 28.0604C12.5414 28.4871 12.4857 28.5242 12.1332 28.4871C11.6695 28.4129 11.4283 27.6709 11.7808 27.4483C12.059 27.2628 11.8179 25.3892 11.5025 25.3892C11.3727 25.3892 11.2243 25.5747 11.1872 25.7973C11.113 26.1497 11.0944 26.1312 11.0759 25.686C11.0573 25.1851 11.0759 25.1666 11.7622 25.2964C12.4115 25.4263 12.9124 25.4634 13.4318 25.4077C13.6915 25.3892 13.7472 24.7213 13.506 24.5729C13.4132 24.5173 12.8382 24.4616 12.226 24.4431C11.1315 24.406 11.1315 24.406 11.2057 23.868C11.2799 23.33 11.484 23.1074 12.0219 23.0332C12.2817 22.9961 12.3188 23.0889 12.226 23.6269C12.1332 24.2019 12.1704 24.2761 12.5228 24.2761C12.7454 24.2761 12.9124 24.1648 12.9124 24.0164C12.9124 23.868 13.0051 23.6825 13.135 23.6083C13.2834 23.5156 13.3019 23.5712 13.2277 23.7753C13.1535 23.9793 13.2092 24.0906 13.3947 24.0906C13.6173 24.0906 13.6173 24.0164 13.4689 23.7196C13.3576 23.5156 13.1721 23.3671 13.0422 23.4042C12.9309 23.4228 12.8011 23.2558 12.764 23.0147C12.6712 22.4211 13.0422 22.5138 13.3761 23.1816C13.5431 23.497 14.0625 24.2576 14.5448 24.8512C15.1941 25.7045 15.3425 26.0013 15.1755 26.1683C15.0086 26.3352 14.9529 26.2981 14.9529 25.9828C14.9529 25.7602 14.8787 25.5747 14.7674 25.5747C14.6747 25.5747 14.6005 25.8715 14.619 26.2239C14.6376 26.8547 14.6561 26.8732 15.4353 26.8732C16.1216 26.8732 16.2144 26.8361 16.1216 26.5022C16.066 26.2981 15.9547 26.0755 15.8619 26.0384C15.7877 25.9828 15.7692 25.6674 15.8248 25.315C15.9361 24.6471 15.5837 24.2205 15.3054 24.6657C15.1384 24.9625 15.1384 24.9625 14.5077 24.0164C13.9512 23.1816 13.9141 22.9776 14.3222 22.9776C14.5077 22.9776 14.5819 22.8663 14.5077 22.6993C14.4521 22.5509 14.5448 22.3469 14.7303 22.2541C14.9715 22.1243 14.8602 22.0872 14.2851 22.1243L13.5431 22.1799V21.0483L13.5616 19.9167L12.8196 19.9353C12.4115 19.9538 12.1889 19.9167 12.3188 19.8796C12.4301 19.824 12.5414 19.6385 12.5414 19.4344C12.5414 19.0449 12.8753 18.9521 13.0051 19.3046C13.0793 19.4715 13.5987 19.5457 14.6932 19.5643C16.27 19.5828 16.4555 19.3973 15.1013 19.1747C14.7118 19.1005 14.3964 18.9892 14.3964 18.915C14.3964 18.7852 14.2666 18.7481 13.4503 18.6738C13.1906 18.6367 13.0979 18.5254 13.1535 18.3028C13.2277 18.0617 13.135 17.9689 12.8938 17.9689C12.7083 17.9689 12.5414 17.8762 12.5414 17.7649C12.5414 17.6536 12.6898 17.6165 12.8938 17.6907C13.1535 17.7649 13.2834 17.6907 13.3761 17.431C13.5431 16.893 14.7674 15.9284 15.2683 15.9284C15.528 15.9284 15.695 15.8171 15.695 15.6501C15.695 15.5017 15.7877 15.3718 15.8805 15.3718C15.9918 15.3718 16.066 15.4646 16.066 15.5759C16.066 16.0026 16.5297 15.5945 16.6225 15.075C16.6967 14.6855 16.8451 14.5185 17.1419 14.4814C17.3831 14.4443 17.6613 14.2217 17.7726 13.962C17.8839 13.7208 18.1436 13.4797 18.3291 13.4055C18.5332 13.3498 18.6445 13.2571 18.6074 13.22C18.4961 13.1087 17.6057 13.4982 16.7338 14.0733C16.2144 14.3887 15.9732 14.4629 15.9176 14.2959C15.8063 13.962 15.5095 14.0177 15.5095 14.3887C15.5095 14.6669 15.4724 14.6855 15.3239 14.4443C15.2312 14.2774 15.2312 14.0919 15.3611 13.9435C15.4538 13.8136 15.5095 13.591 15.4538 13.424C15.3796 13.2756 15.4167 13.1087 15.5095 13.053C15.6208 12.9788 15.695 12.8119 15.695 12.6449C15.695 12.3852 15.6393 12.3852 15.3239 12.682C14.8787 13.0901 14.8602 12.9417 15.2312 12.2182C15.3796 11.9214 15.6764 11.6432 15.8805 11.569C16.0845 11.5133 16.2886 11.2722 16.3628 11.031C16.4184 10.8084 16.6967 10.5301 16.9935 10.4188C17.5129 10.2333 17.5315 10.2333 17.3645 10.5672C17.1605 10.9383 17.2903 11.0125 17.717 10.7528C17.8468 10.66 17.921 10.5116 17.8654 10.4374C17.8097 10.3446 17.8839 10.1591 18.0138 10.0478C18.2178 9.86232 18.2549 9.89943 18.2364 10.3261C18.2178 10.6043 18.088 10.9568 17.9396 11.1052C17.7541 11.3093 17.7355 11.3835 17.921 11.4391C18.1993 11.5319 18.5332 11.2165 18.5889 10.7899C18.626 10.6043 18.7187 10.4374 18.8115 10.4003C18.9228 10.3632 18.9599 10.1777 18.9042 9.99218C18.7929 9.58407 18.9784 9.52841 19.4051 9.80667C19.5906 9.91798 19.6091 9.99218 19.4607 9.99218C19.3309 9.99218 19.2196 10.0849 19.2196 10.1962C19.2196 10.3446 19.3123 10.3446 19.4978 10.1777C19.6462 10.0478 19.7761 9.82522 19.7761 9.69537C19.7761 9.54697 19.943 9.43566 20.1285 9.43566C20.7222 9.43566 21.0746 9.23161 21.0746 8.87914C21.0746 8.67509 21.1674 8.47103 21.2601 8.41538C21.3714 8.34118 21.4085 8.22987 21.3529 8.13712C21.2972 8.04437 21.3529 7.91451 21.4642 7.84031C21.6311 7.74756 21.6497 7.84031 21.594 8.10002C21.39 8.86059 22.0022 8.50813 22.3732 7.63626C22.5587 7.24669 22.7998 7.02409 23.1523 6.94988C23.4491 6.89423 23.6717 6.72728 23.6717 6.56032C23.6717 6.41192 23.7645 6.28206 23.8572 6.28206C23.9685 6.28206 24.0427 6.13366 24.0613 5.94815C24.0613 5.7812 24.1169 5.72554 24.154 5.83685C24.2097 5.94815 24.1355 6.28206 24.0242 6.57887C23.8943 6.87568 23.8201 7.22814 23.8387 7.358C23.8572 7.5064 23.7459 7.56205 23.4491 7.48785C22.8926 7.33945 22.3175 7.76611 22.5587 8.13712C22.6885 8.34118 22.7998 8.35973 23.1523 8.17422C23.3935 8.06292 23.7459 7.97017 23.95 8.00727C24.2097 8.02582 24.3395 7.91451 24.3766 7.6177C24.4323 7.30235 24.5621 7.20959 24.9888 7.20959C25.3042 7.20959 25.5824 7.09829 25.6381 6.94988C25.6937 6.80148 25.8607 6.72728 25.9905 6.78293C26.1389 6.82003 26.4728 6.65307 26.7326 6.39337C26.9923 6.13366 27.2149 5.9296 27.252 5.94815C27.4004 6.02235 28.1238 5.66989 28.1238 5.50294C28.1238 5.39163 28.1795 5.35453 28.2537 5.41018C28.3094 5.48439 28.4578 5.46584 28.5691 5.37308C28.903 5.09482 31.8525 4.2786 33.0398 4.13019L34.1528 3.98179L33.0398 3.74063C31.8525 3.48092 28.2723 3.29542 27.1963 3.42527ZM25.0816 6.02235C25.0074 6.18931 24.9146 6.30061 24.8775 6.24496C24.8218 6.18931 24.8218 6.0038 24.896 5.83685C24.9703 5.66989 25.063 5.55859 25.1001 5.61424C25.1558 5.66989 25.1558 5.8554 25.0816 6.02235ZM26.0276 6.13366C25.972 6.28206 25.9163 6.22641 25.9163 6.02235C25.8978 5.8183 25.9534 5.70699 26.0091 5.7812C26.0647 5.83685 26.0833 6.0038 26.0276 6.13366ZM24.9703 6.65307C24.9703 6.74583 24.896 6.83858 24.7847 6.83858C24.692 6.83858 24.5992 6.74583 24.5992 6.65307C24.5992 6.54177 24.692 6.46757 24.7847 6.46757C24.896 6.46757 24.9703 6.54177 24.9703 6.65307ZM20.3326 8.87914C20.3326 8.9719 20.2955 9.06465 20.2584 9.06465C20.2028 9.06465 20.11 8.9719 20.0543 8.87914C19.9987 8.76784 20.0358 8.69364 20.1285 8.69364C20.2399 8.69364 20.3326 8.76784 20.3326 8.87914ZM14.6005 13.0159C14.415 13.1829 14.3964 13.1643 14.5077 12.9046C14.5634 12.7191 14.6747 12.6264 14.7303 12.682C14.786 12.7377 14.7303 12.8861 14.6005 13.0159ZM15.1384 13.4055C15.1384 13.6095 14.786 13.6837 14.6747 13.5168C14.619 13.424 14.6932 13.3313 14.8416 13.3313C15.0086 13.3313 15.1384 13.3684 15.1384 13.4055ZM14.2851 13.7765C14.1738 14.0919 13.6544 14.333 13.6544 14.0733C13.6544 13.9806 13.8028 13.8136 13.9883 13.7208C14.3964 13.4797 14.3964 13.4797 14.2851 13.7765ZM82.7368 14.4258C84.462 15.2791 85.4266 16.9486 85.5935 19.3973C85.6863 20.9185 85.6863 20.937 85.2411 20.937C84.9999 20.937 82.6255 21.0669 79.9727 21.2153C77.32 21.3637 74.7786 21.4935 74.3333 21.4935H73.5171L73.6099 19.8425C73.7026 18.3956 73.7954 18.0246 74.3519 17.0043C75.0939 15.6316 76.3183 14.6113 77.7281 14.1846C79.0823 13.7579 81.6237 13.8878 82.7368 14.4258ZM98.1523 14.2959C98.579 14.4258 99.2839 14.9266 99.8404 15.4646C100.582 16.2066 100.842 16.6147 101.083 17.5237C101.25 18.1359 101.399 18.9892 101.399 19.3973V20.1764L100.434 20.2692C99.896 20.3249 97.6143 20.4176 95.3697 20.4733C93.1251 20.5289 90.8434 20.6217 90.3239 20.6773L89.3408 20.7886V19.7683C89.3408 17.3568 91.0845 14.871 93.2364 14.2032C94.4051 13.8507 96.928 13.8878 98.1523 14.2959ZM37.8073 14.2774C40.3672 14.7968 43.1684 16.8002 44.5411 19.082C45.246 20.2506 45.9324 22.217 45.9324 23.0703V23.6454L42.5562 23.9793C37.4919 24.4987 30.7209 25.3521 31.463 25.3706C32.78 25.4077 40.3672 24.9996 43.0385 24.7399C44.5782 24.61 45.8953 24.5358 45.9695 24.5729C46.3962 24.8326 45.4501 28.1532 44.5226 29.6929C43.4466 31.4552 41.9255 32.494 39.1614 33.3474C36.3232 34.2378 32.2421 34.1821 30.5169 33.2546C28.736 32.2714 26.8624 30.0639 26.0833 28.0419C25.8978 27.5225 25.6381 26.3909 25.5082 25.5561C25.3227 24.2205 25.3413 23.7753 25.601 22.5138C26.3244 19.0078 28.365 16.4292 31.5557 14.9823C32.2421 14.6669 33.1511 14.3516 33.5777 14.2588C34.7093 14.0362 36.6942 14.0548 37.8073 14.2774ZM14.6005 14.6855C14.4892 14.8339 14.4521 15.1121 14.5263 15.2791C14.619 15.5388 14.5819 15.5945 14.3408 15.5017C14.1738 15.446 13.9883 15.4646 13.9141 15.5759C13.8585 15.6872 13.6915 15.7243 13.5802 15.6872C13.4503 15.6316 13.1906 15.8356 13.0237 16.1324C12.4301 17.1527 12.2817 16.6333 12.8196 15.3347C12.8938 15.1492 13.0979 14.9637 13.3019 14.9081C13.4874 14.8339 13.6544 14.704 13.6544 14.5927C13.6544 14.5 13.7657 14.4443 13.8956 14.5C14.044 14.5556 14.2666 14.5185 14.415 14.4443C14.7489 14.2217 14.8787 14.3701 14.6005 14.6855ZM13.0979 20.937C13.0979 21.0298 13.0237 21.1225 12.9124 21.1225C12.8196 21.1225 12.7269 21.0298 12.7269 20.937C12.7269 20.8257 12.8196 20.7515 12.9124 20.7515C13.0237 20.7515 13.0979 20.8257 13.0979 20.937ZM12.3559 22.2356C12.3559 22.3283 12.2631 22.4211 12.1518 22.4211C12.059 22.4211 12.0034 22.4953 12.0776 22.588C12.1332 22.6808 12.0961 22.8106 11.9848 22.8848C11.8921 22.9405 11.7993 22.8663 11.7993 22.7179C11.7993 22.5695 11.6509 22.3469 11.484 22.2541C11.2057 22.0872 11.2614 22.0686 11.7622 22.0501C12.0776 22.0501 12.3559 22.1243 12.3559 22.2356ZM46.9898 29.1364C46.9341 29.2662 46.897 29.1735 46.897 28.9138C46.897 28.6541 46.9341 28.5613 46.9898 28.6726C47.0269 28.8025 47.0269 29.0251 46.9898 29.1364ZM13.2463 29.2477C13.3205 29.7114 13.0051 29.8042 12.8382 29.359C12.6712 28.8952 12.7083 28.6912 12.968 28.7654C13.0793 28.821 13.2092 29.0251 13.2463 29.2477ZM15.695 30.2865C15.695 30.3422 15.6208 30.4349 15.5095 30.4906C15.4167 30.5462 15.3239 30.5091 15.3239 30.4164C15.3239 30.3051 15.4167 30.2123 15.5095 30.2123C15.6208 30.2123 15.695 30.2494 15.695 30.2865ZM16.6225 30.7688C16.6225 30.8616 16.5854 30.9543 16.5483 30.9543C16.4926 30.9543 16.3999 30.8616 16.3442 30.7688C16.2886 30.6575 16.3257 30.5833 16.4184 30.5833C16.5297 30.5833 16.6225 30.6575 16.6225 30.7688ZM17.7355 30.843C17.7355 30.8987 17.6613 30.9914 17.55 31.0471C17.4573 31.1027 17.3645 31.0656 17.3645 30.9729C17.3645 30.8616 17.4573 30.7688 17.55 30.7688C17.6613 30.7688 17.7355 30.8059 17.7355 30.843ZM16.9935 31.8819C16.9935 31.9746 16.9007 32.0674 16.7894 32.0674C16.6967 32.0674 16.6596 31.9746 16.7152 31.8819C16.7709 31.7706 16.8636 31.6964 16.9193 31.6964C16.9564 31.6964 16.9935 31.7706 16.9935 31.8819ZM24.3581 32.5126L24.8775 32.9763L24.321 32.9207C24.0242 32.8836 23.7088 32.9578 23.6346 33.0691C23.5419 33.2175 23.4862 33.199 23.4862 33.032C23.4862 32.9021 23.412 32.8279 23.3192 32.9021C23.2265 32.9578 23.0966 32.9207 23.0224 32.8094C22.9668 32.7166 23.0781 32.6239 23.2821 32.6239C23.5419 32.6239 23.6346 32.5311 23.5604 32.3456C23.3935 31.919 23.7645 32.0117 24.3581 32.5126ZM15.5095 33.5329C15.5095 33.6256 15.6579 33.6627 15.8619 33.6071C16.0845 33.5514 16.2329 33.6442 16.3071 33.9039C16.3628 34.1636 16.3071 34.2934 16.1402 34.2934C15.9918 34.2934 15.8805 34.2192 15.8805 34.1079C15.8805 34.0152 15.7692 33.9781 15.6208 34.0337C15.4724 34.0894 15.2683 33.9781 15.1384 33.7555C14.9715 33.4401 14.99 33.3659 15.2312 33.3659C15.3796 33.3659 15.5095 33.4401 15.5095 33.5329ZM25.3413 33.5514C25.3413 33.6442 25.2671 33.7369 25.1558 33.7369C25.063 33.7369 24.9703 33.6442 24.9703 33.5514C24.9703 33.4401 25.063 33.3659 25.1558 33.3659C25.2671 33.3659 25.3413 33.4401 25.3413 33.5514ZM19.9801 33.9595C20.11 34.2007 20.2399 34.2934 20.277 34.1636C20.3326 34.0337 20.481 33.9966 20.6294 34.0523C21.0004 34.1821 20.9633 34.4418 20.5738 34.4047C20.3326 34.3862 20.2399 34.516 20.2399 34.9056C20.2584 35.5178 19.8688 35.5178 19.4607 34.9056C19.201 34.5346 19.2196 34.516 19.6277 34.5902L20.0543 34.683L19.6462 34.3676C19.4051 34.2007 19.2196 33.941 19.2196 33.8111C19.2196 33.403 19.739 33.5143 19.9801 33.9595ZM40.3858 34.5346C40.3672 34.6088 40.3672 34.7943 40.3672 34.9427C40.3672 35.0911 40.2559 35.221 40.1075 35.221C39.9406 35.221 39.8849 35.3508 39.9406 35.5734C39.9962 35.7775 39.9035 35.963 39.7365 36.0186C39.4954 36.1114 39.4583 36.0001 39.5139 35.3694C39.551 34.9613 39.6994 34.5531 39.8293 34.4604C40.1075 34.2749 40.4043 34.312 40.3858 34.5346ZM25.9905 34.8685C26.0276 35.0355 25.9349 35.1653 25.805 35.1653C25.6566 35.1653 25.5639 34.9984 25.5824 34.8129C25.6195 34.4233 25.9349 34.4604 25.9905 34.8685ZM27.5673 35.9073C27.5673 36.167 27.085 36.2412 26.9366 35.9815C26.8068 35.7775 26.9366 35.6476 27.2891 35.6476C27.4375 35.6476 27.5673 35.7589 27.5673 35.9073ZM20.7778 37.1873C21.1859 37.3357 21.1488 37.818 20.7593 37.8366C20.4996 37.8366 20.5181 37.8737 20.852 38.0036C21.3714 38.2262 21.4085 38.7456 20.8891 38.6157C20.5552 38.523 19.9616 37.6325 19.9616 37.2244C19.9616 37.0575 20.3697 37.0204 20.7778 37.1873ZM27.7157 37.2059C27.5302 37.243 27.2334 37.243 27.0665 37.2059C26.881 37.1502 27.0294 37.1131 27.3818 37.1131C27.7343 37.1131 27.8827 37.1502 27.7157 37.2059ZM19.8688 37.7809C20.11 37.9479 20.5181 38.6899 20.5181 38.9311C20.5181 39.3763 19.9245 39.0609 19.6648 38.4673C19.3123 37.614 19.368 37.4099 19.8688 37.7809ZM28.9957 41.6395C28.9401 41.6951 28.7731 41.7137 28.6433 41.658C28.4949 41.6024 28.5505 41.5467 28.7546 41.5467C28.9586 41.5282 29.0699 41.5838 28.9957 41.6395Z" fill="white"/>
<path d="M23.3008 9.08337C23.3008 9.17612 23.3935 9.21322 23.4863 9.15757C23.5976 9.10192 23.6718 9.00916 23.6718 8.95351C23.6718 8.91641 23.5976 8.87931 23.4863 8.87931C23.3935 8.87931 23.3008 8.97206 23.3008 9.08337Z" fill="white"/>
<path d="M16.5849 11.4392C16.1953 11.5134 15.9727 12.0329 16.3252 12.0329C16.4736 12.0329 16.622 11.9216 16.6776 11.7917C16.7147 11.6804 16.826 11.6247 16.9002 11.6989C16.9744 11.7731 16.9559 11.9401 16.8817 12.07C16.6405 12.441 16.622 12.812 16.8631 12.7192C16.9744 12.6821 17.1414 12.5337 17.2341 12.3668C17.4753 11.9958 17.0301 11.3465 16.5849 11.4392Z" fill="white"/>
<path d="M15.5469 17.7835C15.5469 18.0432 15.584 18.1359 15.6396 18.0061C15.6767 17.8948 15.6767 17.6721 15.6396 17.5423C15.584 17.431 15.5469 17.5237 15.5469 17.7835Z" fill="white"/>
<path d="M15.8987 17.7093C15.8987 17.9133 15.9543 17.969 16.01 17.8206C16.0656 17.6907 16.0471 17.5238 15.9914 17.4681C15.9358 17.3939 15.8801 17.5052 15.8987 17.7093Z" fill="white"/>
<path d="M13.9142 21.2153C13.9142 21.475 13.9884 21.6791 14.0812 21.6791C14.2667 21.6791 14.2481 20.9742 14.0441 20.8629C13.9513 20.8072 13.8956 20.9556 13.9142 21.2153Z" fill="white"/>
<path d="M16.103 23.8496C16.1401 24.1649 16.2885 24.3875 16.4926 24.4246C16.7337 24.4803 16.8079 24.369 16.8079 23.9238C16.8079 23.46 16.7337 23.3487 16.4184 23.3487C16.1216 23.3487 16.0474 23.4415 16.103 23.8496ZM16.6224 23.7197C16.6224 23.8125 16.5482 23.9052 16.4369 23.9052C16.3442 23.9052 16.2514 23.8125 16.2514 23.7197C16.2514 23.6084 16.3442 23.5342 16.4369 23.5342C16.5482 23.5342 16.6224 23.6084 16.6224 23.7197Z" fill="white"/>
<path d="M17.791 27.8008C17.8838 28.3758 18.1064 28.4686 18.1064 27.9306C18.1064 27.6524 18.0322 27.4297 17.9209 27.4297C17.8281 27.4297 17.7539 27.5967 17.791 27.8008Z" fill="white"/>
<path d="M18.6258 27.5597C18.7557 27.6153 18.9226 27.5968 18.9783 27.5411C19.0525 27.4855 18.9412 27.4298 18.7371 27.4484C18.5331 27.4484 18.4774 27.504 18.6258 27.5597Z" fill="white"/>
<path d="M0.94706 29.0436C1.33662 29.8784 1.31807 29.9526 0.538948 30.4906C-0.240177 31.01 -0.165974 31.1027 0.705903 30.6575C1.16967 30.4164 1.29952 30.3978 1.42938 30.6204C1.55923 30.8059 1.59633 30.8059 1.59633 30.5833C1.59633 30.3978 1.76329 30.472 2.0601 30.8245C2.56096 31.381 2.70937 31.2697 2.2456 30.6575C1.87459 30.1566 1.89314 30.0639 2.57951 29.4332L3.17313 28.8581L2.54241 29.1735C2.02299 29.4517 1.89314 29.4517 1.76329 29.2477C1.63343 29.0622 1.59633 29.0622 1.59633 29.2848C1.59633 29.4703 1.42938 29.359 1.11402 29.0065L0.650251 28.45L0.94706 29.0436Z" fill="white"/>
<path d="M19.3678 30.6204C19.4049 30.8059 19.5163 30.9543 19.609 30.9543C19.7018 30.9543 19.776 30.8059 19.776 30.6204C19.776 30.4349 19.6647 30.268 19.5163 30.268C19.3678 30.268 19.3122 30.4164 19.3678 30.6204Z" fill="white"/>
<path d="M118.929 31.0843C118.02 31.2327 117.222 31.3997 117.185 31.4368C117 31.6037 118.613 33.6628 119.801 34.7573C121.192 36.0373 123.362 37.2246 125.236 37.7254C126.776 38.1521 130.375 38.3005 132.137 38.0037C133.862 37.7254 135.661 37.0947 136.867 36.3156L137.758 35.7405V33.4402C137.758 32.1788 137.702 31.14 137.646 31.14C137.572 31.14 137.257 31.3811 136.904 31.6779C136.014 32.4756 134.196 33.4959 132.879 33.9597C131.117 34.5718 128 34.646 126.219 34.1081C124.568 33.6072 123.103 32.7353 121.99 31.6223C121.544 31.1585 121.044 30.7875 120.877 30.7875C120.728 30.8061 119.856 30.9359 118.929 31.0843Z" fill="white"/>
<path d="M19.3123 31.5109C19.3679 31.6037 19.4607 31.6964 19.5163 31.6964C19.5534 31.6964 19.5905 31.6037 19.5905 31.5109C19.5905 31.3996 19.4978 31.3254 19.3865 31.3254C19.2937 31.3254 19.2566 31.3996 19.3123 31.5109Z" fill="white"/>
<path d="M110.154 32.29L108.8 32.4755L108.856 35.0912L108.912 37.7253H110.674H112.436L112.492 34.8871L112.548 32.0674L112.028 32.086C111.731 32.1045 110.897 32.1973 110.154 32.29Z" fill="white"/>
<path d="M102.938 33.199C102.289 33.2732 101.714 33.3846 101.621 33.4402C101.51 33.4959 101.454 37.0205 101.566 37.6883C101.566 37.7625 102.363 37.7996 103.309 37.781L105.016 37.7254L105.072 35.3509L105.127 32.995L104.608 33.0135C104.33 33.0321 103.569 33.1063 102.938 33.199Z" fill="white"/>
<path d="M87.5787 34.7944C87.1706 34.8315 86.5584 34.9057 86.2245 34.9613L85.6123 35.0541L85.668 36.3897L85.7236 37.7253H87.4859H89.2482L89.3039 36.1856L89.3595 34.6645L88.8401 34.7016C88.5618 34.7201 87.9868 34.7572 87.5787 34.7944Z" fill="white"/>
<path d="M62.1641 36.1486C61.1438 36.2228 58.8435 36.3898 57.0627 36.5196C55.2818 36.6309 53.6864 36.7794 53.538 36.835C53.0743 36.9834 55.523 37.7996 56.9142 37.9666C59.9751 38.3376 62.9061 37.744 64.9466 36.3527L65.5032 35.9631L64.7611 36.0002C64.353 36.0002 63.1843 36.0744 62.1641 36.1486Z" fill="white"/>
<path d="M71.9031 36.0929C69.9368 36.1856 69.8255 36.2413 69.8997 37.039L69.9553 37.7253H71.7176H73.4799L73.5356 36.8349C73.5727 36.2042 73.5356 35.9816 73.3501 36.0001C73.2202 36.0187 72.5709 36.0558 71.9031 36.0929Z" fill="white"/>
<path d="M12.1708 40.8605C12.1708 40.9347 12.3192 41.25 12.4861 41.5469C12.7829 42.0292 12.7829 42.1219 12.5418 42.2703C12.3006 42.4373 12.3006 42.4558 12.5418 42.4558C12.7087 42.4744 12.5789 42.6784 12.1708 43.0309L11.5215 43.606L12.1708 43.2721C12.8386 42.9196 13.4693 42.7897 13.4693 42.9938C13.4878 43.0495 13.6919 43.3463 13.9702 43.6616L14.4525 44.2181L14.0444 43.4947C13.7476 42.9753 13.6919 42.7341 13.8589 42.6413C14.0073 42.53 14.0073 42.4744 13.8218 42.4187C13.6734 42.3631 13.8589 42.1405 14.3041 41.8437C14.7122 41.5654 14.9533 41.3428 14.8606 41.3428C14.7493 41.3428 14.4339 41.5098 14.1186 41.7138C13.358 42.2147 13.1725 42.1776 12.6345 41.3985C12.3748 41.0089 12.1708 40.7677 12.1708 40.8605Z" fill="white"/>
<path d="M84.2139 42.1439V39.8696H85.7572V42.1439H87.7878V43.5084H85.7572V47.5047C85.7572 48.0029 85.8546 48.3549 86.0496 48.5606C86.2553 48.7664 86.5099 48.8855 86.8131 48.918C87.1272 48.9397 87.4521 48.9289 87.7878 48.8855V50.2014C87.3438 50.2988 86.9051 50.3259 86.4719 50.2826C86.0496 50.2501 85.6651 50.131 85.3186 49.9252C84.9828 49.7194 84.7121 49.4216 84.5063 49.0317C84.3114 48.631 84.2139 48.122 84.2139 47.5047V43.5084H83.0443V42.1439H84.2139ZM92.7331 50.3801C91.9642 50.3801 91.2711 50.2122 90.6538 49.8765C90.0473 49.5299 89.5708 49.048 89.2242 48.4307C88.8776 47.8025 88.7044 47.0661 88.7044 46.2214C88.7044 45.3658 88.8831 44.6239 89.2405 43.9958C89.5978 43.3676 90.0852 42.8857 90.7025 42.55C91.3198 42.2034 92.0129 42.0301 92.7819 42.0301C93.5508 42.0301 94.2439 42.2034 94.8612 42.55C95.4894 42.8857 95.9821 43.3676 96.3395 43.9958C96.6969 44.6131 96.8756 45.3441 96.8756 46.1889C96.8756 47.0444 96.6915 47.7863 96.3233 48.4144C95.9659 49.0426 95.4731 49.5299 94.845 49.8765C94.2168 50.2122 93.5129 50.3801 92.7331 50.3801ZM92.7169 48.983C93.1501 48.983 93.5562 48.8855 93.9353 48.6906C94.3143 48.4848 94.623 48.1762 94.8612 47.7646C95.1103 47.3531 95.2349 46.8278 95.2349 46.1889C95.2349 45.5607 95.1157 45.0463 94.8775 44.6456C94.65 44.234 94.3468 43.9308 93.9677 43.7359C93.5887 43.5301 93.1826 43.4272 92.7494 43.4272C92.327 43.4272 91.9317 43.5301 91.5635 43.7359C91.2061 43.9308 90.9137 44.234 90.6863 44.6456C90.4588 45.0571 90.3451 45.5824 90.3451 46.2214C90.3451 46.8495 90.4534 47.3693 90.67 47.7809C90.8974 48.1816 91.1899 48.4848 91.5472 48.6906C91.9046 48.8855 92.2945 48.983 92.7169 48.983ZM105.207 50.2664H103.81L103.696 49.3079C103.436 49.6545 103.106 49.9198 102.705 50.1039C102.316 50.288 101.877 50.3801 101.39 50.3801C100.761 50.3801 100.214 50.2501 99.7488 49.9902C99.2831 49.7194 98.9203 49.3296 98.6604 48.8206C98.4113 48.3007 98.2868 47.6563 98.2868 46.8874V42.1439H99.83V46.6925C99.83 47.4397 99.9817 48.0083 100.285 48.3982C100.599 48.7881 101.07 48.983 101.698 48.983C102.316 48.983 102.797 48.7826 103.144 48.3819C103.501 47.9812 103.68 47.3856 103.68 46.595V42.1439H105.207V50.2664ZM107.198 42.1439H108.595L108.692 43.2323C108.92 42.9507 109.18 42.7178 109.472 42.5337C109.775 42.3388 110.1 42.2034 110.447 42.1276C110.804 42.0518 111.173 42.0572 111.552 42.1439V43.5897C111.194 43.503 110.848 43.4922 110.512 43.5572C110.176 43.6222 109.873 43.7629 109.602 43.9795C109.342 44.1853 109.131 44.4615 108.969 44.808C108.806 45.1546 108.725 45.5716 108.725 46.0589V50.2664H107.198V42.1439ZM113.018 42.1439H114.561V50.2664H113.018V42.1439ZM113.798 40.7143C113.506 40.7143 113.262 40.6168 113.067 40.4219C112.872 40.2269 112.775 39.9887 112.775 39.7071C112.775 39.4147 112.872 39.171 113.067 38.9761C113.262 38.7703 113.506 38.6674 113.798 38.6674C114.08 38.6674 114.318 38.7703 114.513 38.9761C114.718 39.171 114.821 39.4147 114.821 39.7071C114.821 39.9887 114.718 40.2269 114.513 40.4219C114.318 40.6168 114.08 40.7143 113.798 40.7143ZM117.706 47.6996C117.782 48.0245 117.912 48.2791 118.096 48.4632C118.28 48.6473 118.497 48.7826 118.746 48.8693C119.006 48.9451 119.276 48.983 119.558 48.983C120.045 48.983 120.424 48.8855 120.695 48.6906C120.966 48.4957 121.101 48.252 121.101 47.9596C121.101 47.7105 121.015 47.5155 120.841 47.3747C120.679 47.2231 120.457 47.104 120.175 47.0174C119.905 46.9307 119.612 46.8495 119.298 46.7737C119.017 46.6979 118.708 46.6112 118.372 46.5138C118.047 46.4163 117.739 46.2863 117.446 46.1239C117.165 45.9506 116.932 45.734 116.748 45.4741C116.564 45.2033 116.472 44.8622 116.472 44.4506C116.472 43.9633 116.601 43.5409 116.861 43.1835C117.132 42.8153 117.5 42.5337 117.966 42.3388C118.443 42.133 118.979 42.0301 119.574 42.0301C120.267 42.0301 120.874 42.1818 121.394 42.485C121.924 42.7774 122.309 43.2214 122.547 43.8171L121.166 44.272C121.091 44.0662 120.966 43.8983 120.793 43.7684C120.619 43.6384 120.419 43.5518 120.192 43.5084C119.975 43.4543 119.758 43.4272 119.542 43.4272C119.13 43.4272 118.789 43.5084 118.518 43.6709C118.248 43.8333 118.112 44.0716 118.112 44.3857C118.112 44.5589 118.156 44.7052 118.242 44.8243C118.329 44.9326 118.448 45.0246 118.6 45.1004C118.762 45.1654 118.952 45.225 119.168 45.2791C119.385 45.3333 119.618 45.3929 119.867 45.4578C120.192 45.5553 120.522 45.6636 120.858 45.7827C121.193 45.891 121.502 46.0318 121.784 46.2051C122.065 46.3784 122.293 46.6058 122.466 46.8874C122.639 47.169 122.731 47.5155 122.742 47.9271C122.742 48.4036 122.607 48.826 122.336 49.1942C122.076 49.5624 121.702 49.8548 121.215 50.0714C120.739 50.2772 120.17 50.3801 119.509 50.3801C118.708 50.3801 118.026 50.2014 117.462 49.844C116.899 49.4866 116.52 48.9343 116.325 48.187L117.706 47.6996ZM124.277 42.1439H125.674L125.771 43.0861C126.031 42.7612 126.356 42.5067 126.746 42.3226C127.136 42.1276 127.574 42.0301 128.062 42.0301C128.614 42.0301 129.112 42.1547 129.556 42.4038C130.011 42.642 130.369 42.9994 130.629 43.4759C130.899 42.9994 131.284 42.642 131.782 42.4038C132.28 42.1547 132.827 42.0301 133.423 42.0301C134.04 42.0301 134.581 42.1655 135.047 42.4363C135.524 42.6962 135.892 43.0861 136.152 43.6059C136.412 44.1257 136.542 44.7755 136.542 45.5553V50.2664H134.998V45.7502C134.998 44.9921 134.836 44.4182 134.511 44.0283C134.186 43.6276 133.72 43.4272 133.114 43.4272C132.497 43.4272 132.009 43.633 131.652 44.0445C131.295 44.4561 131.116 45.0571 131.116 45.8477V50.2664H129.573V45.7502C129.573 44.9921 129.421 44.4182 129.118 44.0283C128.814 43.6276 128.36 43.4272 127.753 43.4272C127.136 43.4272 126.654 43.633 126.307 44.0445C125.972 44.4561 125.804 45.0571 125.804 45.8477V50.2664H124.277V42.1439Z" fill="url(#paint0_linear_6_1751)"/>
<defs>
<linearGradient id="paint0_linear_6_1751" x1="110.854" y1="40.8263" x2="110.854" y2="54.8263" gradientUnits="userSpaceOnUse">
<stop offset="0.24" stop-color="white"/>
<stop offset="1" stop-color="#1E978E" stop-opacity="0.5"/>
</linearGradient>
</defs>
</svg>
