<svg width="81" height="74" viewBox="0 0 81 74" fill="none" xmlns="http://www.w3.org/2000/svg">
<path d="M40.6002 55.8C55.4456 55.8 67.4802 43.7654 67.4802 28.92C67.4802 14.0746 55.4456 2.04001 40.6002 2.04001C25.7548 2.04001 13.7202 14.0746 13.7202 28.92C13.7202 43.7654 25.7548 55.8 40.6002 55.8Z" stroke="white" stroke-width="4" stroke-linecap="round" stroke-linejoin="round"/>
<path d="M40.5997 40.44C49.0828 40.44 55.9597 35.2823 55.9597 28.92C55.9597 22.5577 49.0828 17.4 40.5997 17.4C32.1167 17.4 25.2397 22.5577 25.2397 28.92C25.2397 35.2823 32.1167 40.44 40.5997 40.44Z" stroke="white" stroke-width="4" stroke-linecap="round" stroke-linejoin="round"/>
<path d="M13.7202 40.44C10.6649 40.44 7.73474 39.2263 5.57433 37.0659C3.41391 34.9055 2.2002 31.9753 2.2002 28.92C2.2002 22.5571 2.2002 17.4 13.7202 17.4M67.4802 40.44C70.5355 40.44 73.4657 39.2263 75.6261 37.0659C77.7865 34.9055 79.0002 31.9753 79.0002 28.92C79.0002 22.5571 79.0002 17.4 67.4802 17.4M73.2402 17.4V2.04002M63.6402 71.16C64.6586 71.16 65.6354 70.7555 66.3555 70.0353C67.0756 69.3152 67.4802 68.3385 67.4802 67.32C67.4802 64.2647 66.2665 61.3346 64.1061 59.1742C61.9457 57.0137 59.0155 55.8 55.9602 55.8H25.2402C22.1849 55.8 19.2547 57.0137 17.0943 59.1742C14.9339 61.3346 13.7202 64.2647 13.7202 67.32C13.7202 68.3385 14.1248 69.3152 14.8449 70.0353C15.565 70.7555 16.5418 71.16 17.5602 71.16H63.6402Z" stroke="white" stroke-width="4" stroke-linecap="round" stroke-linejoin="round"/>
</svg>
