<svg width="82" height="86" viewBox="0 0 82 86" fill="none" xmlns="http://www.w3.org/2000/svg">
<g filter="url(#filter0_i_163_69)">
<path d="M43.0607 53.19C48.8227 51.456 52.2167 42.22 46.8067 34.73C41.9307 27.976 29.4347 26.27 22.2567 34.75C16.4307 41.636 16.3067 54.662 22.3527 61.354C31.4707 71.45 46.3667 71.534 56.3527 62.09C65.9887 52.982 67.4967 38.978 59.0587 26.438C50.4787 13.684 26.3987 8.804 10.8247 25.044C-0.839314 37.2 0.846685 59.51 11.0607 70.876C26.1007 87.622 51.0567 89.11 68.9327 70.876C86.3147 53.148 82.8267 14.06 50.5627 2" stroke="white" stroke-width="4" stroke-linecap="round" stroke-linejoin="round"/>
</g>
<defs>
<filter id="filter0_i_163_69" x="0.722656" y="-0.000549316" width="80.5542" height="85.9999" filterUnits="userSpaceOnUse" color-interpolation-filters="sRGB">
<feFlood flood-opacity="0" result="BackgroundImageFix"/>
<feBlend mode="normal" in="SourceGraphic" in2="BackgroundImageFix" result="shape"/>
<feColorMatrix in="SourceAlpha" type="matrix" values="0 0 0 0 0 0 0 0 0 0 0 0 0 0 0 0 0 0 127 0" result="hardAlpha"/>
<feOffset/>
<feGaussianBlur stdDeviation="15"/>
<feComposite in2="hardAlpha" operator="arithmetic" k2="-1" k3="1"/>
<feColorMatrix type="matrix" values="0 0 0 0 1 0 0 0 0 1 0 0 0 0 1 0 0 0 0.3 0"/>
<feBlend mode="normal" in2="shape" result="effect1_innerShadow_163_69"/>
</filter>
</defs>
</svg>
