<svg width="80" height="88" viewBox="0 0 80 88" fill="none" xmlns="http://www.w3.org/2000/svg">
<g filter="url(#filter0_i_163_39)">
<path d="M63.3741 44L71.6064 48.7536C74.2689 50.3145 76.2059 52.8651 76.9948 55.8489C77.7836 58.8327 77.3603 62.0073 75.8171 64.6801C74.2739 67.3529 71.7362 69.3068 68.7577 70.1154C65.7793 70.9241 62.6018 70.5218 59.9189 68.9964L51.6866 64.2428V73.75C51.6866 76.8497 50.4553 79.8225 48.2634 82.0143C46.0716 84.2061 43.0988 85.4375 39.9991 85.4375C36.8994 85.4375 33.9266 84.2061 31.7348 82.0143C29.543 79.8225 28.3116 76.8497 28.3116 73.75V64.2428M63.3741 44L71.6064 39.2464C74.2689 37.6855 76.2059 35.1349 76.9948 32.1511C77.7836 29.1673 77.3603 25.9927 75.8171 23.3199C74.2739 20.6471 71.7362 18.6932 68.7577 17.8846C65.7793 17.0759 62.6018 17.4782 59.9189 19.0036L51.6866 23.7572V14.25C51.6866 11.1503 50.4553 8.17752 48.2634 5.98569C46.0716 3.79386 43.0988 2.5625 39.9991 2.5625C36.8994 2.5625 33.9266 3.79386 31.7348 5.98569C29.543 8.17752 28.3116 11.1503 28.3116 14.25V23.7572M63.3741 44L28.3116 23.7572M63.3741 44L28.3116 64.2428M28.3116 23.7572L20.0794 19.0036C17.3964 17.4782 14.219 17.0759 11.2405 17.8846C8.26206 18.6932 5.72434 20.6471 4.18117 23.3199C2.63799 25.9927 2.21464 29.1673 3.0035 32.1511C3.79236 35.1349 5.72939 37.6855 8.39188 39.2464L16.6241 44L8.39188 48.7536C5.72939 50.3145 3.79236 52.8651 3.0035 55.8489C2.21464 58.8327 2.63799 62.0073 4.18117 64.6801C5.72434 67.3529 8.26206 69.3068 11.2405 70.1154C14.219 70.9241 17.3964 70.5218 20.0794 68.9964L28.3116 64.2428" stroke="white" stroke-width="3.4" stroke-linecap="round" stroke-linejoin="round"/>
</g>
<defs>
<filter id="filter0_i_163_39" x="0.915039" y="0.862503" width="78.168" height="86.275" filterUnits="userSpaceOnUse" color-interpolation-filters="sRGB">
<feFlood flood-opacity="0" result="BackgroundImageFix"/>
<feBlend mode="normal" in="SourceGraphic" in2="BackgroundImageFix" result="shape"/>
<feColorMatrix in="SourceAlpha" type="matrix" values="0 0 0 0 0 0 0 0 0 0 0 0 0 0 0 0 0 0 127 0" result="hardAlpha"/>
<feOffset/>
<feGaussianBlur stdDeviation="15"/>
<feComposite in2="hardAlpha" operator="arithmetic" k2="-1" k3="1"/>
<feColorMatrix type="matrix" values="0 0 0 0 1 0 0 0 0 1 0 0 0 0 1 0 0 0 0.3 0"/>
<feBlend mode="normal" in2="shape" result="effect1_innerShadow_163_39"/>
</filter>
</defs>
</svg>
