<svg width="23" height="24" viewBox="0 0 23 24" fill="none" xmlns="http://www.w3.org/2000/svg">
<path d="M21.723 0.962158H1.32112C0.830478 0.962158 0.434082 1.35855 0.434082 1.8492V22.2511C0.434082 22.7418 0.830478 23.1381 1.32112 23.1381H21.723C22.2137 23.1381 22.6101 22.7418 22.6101 22.2511V1.8492C22.6101 1.35855 22.2137 0.962158 21.723 0.962158ZM19.1617 7.43478H17.3904C16.0016 7.43478 15.7327 8.09451 15.7327 9.06471V11.2019H19.0481L18.6156 14.5477H15.7327V23.1381H12.2761V14.5505H9.38487V11.2019H12.2761V8.73484C12.2761 5.87137 14.0252 4.31073 16.581 4.31073C17.8062 4.31073 18.8568 4.40221 19.1645 4.44379V7.43478H19.1617Z" fill="white"/>
</svg>
