<svg width="23" height="24" viewBox="0 0 23 24" fill="none" xmlns="http://www.w3.org/2000/svg">
<path d="M21.724 0.968445H1.3221C0.831454 0.968445 0.435059 1.36484 0.435059 1.85548V22.2574C0.435059 22.748 0.831454 23.1444 1.3221 23.1444H21.724C22.2147 23.1444 22.611 22.748 22.611 22.2574V1.85548C22.611 1.36484 22.2147 0.968445 21.724 0.968445ZM7.01301 19.8652H3.72265V9.28167H7.01301V19.8652ZM5.36922 7.83469C4.99202 7.83469 4.6233 7.72283 4.30967 7.51328C3.99604 7.30372 3.7516 7.00586 3.60725 6.65738C3.46291 6.3089 3.42514 5.92544 3.49873 5.55549C3.57231 5.18554 3.75395 4.84572 4.02067 4.579C4.28739 4.31228 4.62721 4.13065 4.99715 4.05706C5.3671 3.98347 5.75056 4.02124 6.09905 4.16559C6.44753 4.30993 6.74538 4.55438 6.95494 4.868C7.1645 5.18163 7.27635 5.55035 7.27635 5.92755C7.27358 6.98091 6.4198 7.83469 5.36922 7.83469ZM19.3318 19.8652H16.0442V14.7176C16.0442 13.4896 16.022 11.9123 14.3339 11.9123C12.6235 11.9123 12.3602 13.2484 12.3602 14.6289V19.8652H9.07538V9.28167H12.2299V10.7287H12.2743C12.7122 9.89705 13.785 9.01833 15.3872 9.01833C18.7192 9.01833 19.3318 11.211 19.3318 14.0606V19.8652Z" fill="white"/>
</svg>
