<svg width="25" height="20" viewBox="0 0 25 20" fill="none" xmlns="http://www.w3.org/2000/svg">
<path d="M24.0541 2.90036C23.2058 3.26627 22.2828 3.52961 21.332 3.63217C22.3191 3.04572 23.0583 2.11921 23.411 1.02649C22.4847 1.57754 21.4699 1.96394 20.4117 2.16856C19.9694 1.69573 19.4345 1.31905 18.8402 1.062C18.246 0.804942 17.6052 0.67302 16.9578 0.67445C14.3382 0.67445 12.2315 2.7978 12.2315 5.40348C12.2315 5.76938 12.2759 6.13529 12.3479 6.48733C8.42555 6.2822 4.92729 4.40833 2.60158 1.53931C2.17782 2.26313 1.95575 3.08727 1.95848 3.926C1.95848 5.56703 2.79285 7.01401 4.0652 7.86502C3.31539 7.83548 2.58313 7.62939 1.92799 7.26349V7.3217C1.92799 9.61969 3.55238 11.5241 5.71731 11.962C5.31082 12.0676 4.89266 12.1216 4.47268 12.1228C4.16499 12.1228 3.87393 12.0923 3.5801 12.0507C4.17885 13.9246 5.92244 15.2857 7.99866 15.33C6.37427 16.6024 4.33963 17.3508 2.13034 17.3508C1.73395 17.3508 1.36805 17.3369 0.988281 17.2926C3.08391 18.637 5.57039 19.4132 8.24814 19.4132C16.9411 19.4132 21.6979 12.2115 21.6979 5.96065C21.6979 5.75552 21.6979 5.5504 21.684 5.34527C22.6043 4.67167 23.411 3.8373 24.0541 2.90036Z" fill="white"/>
</svg>
